<svg width="160" height="160" viewBox="0 0 24 24" fill="none" xmlns="http://www.w3.org/2000/svg">
<path fill-rule="evenodd" clip-rule="evenodd" d="M18 5.1V7.5H19.5V6.07531V5.1C19.5 4.70392 19.424 4.30784 19.1798 3.99602C18.5105 3.14147 16.6231 1.5 12 1.5C7.37687 1.5 5.48953 3.14147 4.82022 3.99602C4.576 4.30784 4.5 4.70392 4.5 5.1V6.07531V7.62803C4.26542 7.54512 4.01298 7.5 3.75 7.5C3.48702 7.5 3.23458 7.54512 3 7.62803C2.12611 7.93691 1.5 8.77034 1.5 9.75V12C1.5 13.6569 2.84315 15 4.5 15V16.1833C4.5 17.3679 4.83829 18.5412 5.65904 19.3953C6.43742 20.2053 7.57981 21.189 9 21.8289V20.1479C8.10312 19.6398 7.3355 18.9751 6.74062 18.356L5.65904 19.3953L6.74062 18.356C6.26319 17.8591 6 17.1039 6 16.1833V15V13.5H4.5C3.67157 13.5 3 12.8284 3 12V9.75C3 9.33579 3.33579 9 3.75 9C3.84034 9 3.92386 9.01533 4.00013 9.04229L6 9.74914V7.62803V5.1C6 4.99335 6.01073 4.92998 6.01879 4.89948L6.01911 4.89827C6.39972 4.42476 7.84927 3 12 3C16.1507 3 17.6003 4.42476 17.9809 4.89827L17.9812 4.89948C17.9893 4.92997 18 4.99335 18 5.1ZM12 19.5L12 14.4217L16.5 17.636V22.0828L12 19.5ZM22.5 19.5L18 22.0601V17.636L22.5 14.4217V19.5ZM17.2268 10.5L21.7817 13.0914L17.25 16.3283L12.7154 13.0894L17.2268 10.5Z" fill="#4CACF8"/>
</svg>
