<svg width="160" height="160" viewBox="0 0 160 160" fill="none" xmlns="http://www.w3.org/2000/svg">
<path fill-rule="evenodd" clip-rule="evenodd" d="M110 20H50V30H60C63.5217 30 66.6183 31.8205 68.4 34.5717L39.6875 116.607C36.8799 124.629 29.3093 130 20.8104 130H20V140H70V130H63.8743C57.0487 130 52.229 123.313 54.3874 116.838L63.3333 90H71.1793C72.6413 85.9373 75.398 82.4047 79.0987 80H66.6667L80 40L91.094 73.2813L102.861 66.744L91.6 34.5717C93.382 31.8205 96.478 30 100 30H110V20ZM80 130V96.1447L110 117.573V147.219L80 130ZM150 130L120 147.067V117.573L150 96.1447V130ZM114.845 70L145.211 87.276L115 108.855L84.7693 87.2627L114.845 70Z" fill="#4CACF8"/>
</svg>
