<svg width="160" height="160" viewBox="0 0 160 160" fill="none" xmlns="http://www.w3.org/2000/svg">
<path fill-rule="evenodd" clip-rule="evenodd" d="M120 34V40H130V34C130 31.3594 129.493 28.719 127.865 26.6402C123.403 20.9432 110.821 10 80 10C49.1792 10 36.5968 20.9432 32.1348 26.6402C30.5066 28.719 30 31.3594 30 34V40.502V50.8536C28.4362 50.3008 26.7532 50 25 50C23.2468 50 21.5638 50.3008 20 50.8536C14.174 52.9128 10 58.469 10 65V80C10 91.0456 18.9543 100 30 100V107.889C30 115.786 32.2552 123.608 37.727 129.302C44.6354 136.492 55.8452 145.732 70 148.887V138.57C59.6624 135.629 50.9682 128.649 44.9374 122.373C41.7546 119.061 40 114.026 40 107.889V100V90H30C24.4772 90 20 85.5228 20 80V65C20 62.2386 22.2386 60 25 60C25.6022 60 26.159 60.1022 26.6676 60.282L40 64.9942V50.8536V34C40 33.289 40.0716 32.8664 40.1252 32.6632L40.1274 32.6552C42.6648 29.4984 52.3284 20 80 20C107.671 20 117.335 29.4984 119.873 32.6552L119.875 32.6632C119.928 32.8664 120 33.289 120 34ZM120 60C120 60 122.509 63.413 126.076 68.688C134.843 81.6534 150 105.868 150 118.309C150 135.811 136.569 150 120 150C103.431 150 90 135.811 90 118.309C90 105.868 105.157 81.6532 113.924 68.688C117.491 63.413 120 60 120 60ZM113.555 87.7694C115.766 84.1158 117.984 80.6496 120 77.5946C122.016 80.6496 124.234 84.1158 126.445 87.7694C130.088 93.7874 133.607 100.137 136.184 105.897C138.917 112.005 140 116.187 140 118.309C140 130.812 130.536 140 120 140C109.464 140 100 130.812 100 118.309C100 116.187 101.083 112.005 103.816 105.897C106.393 100.137 109.912 93.7874 113.555 87.7694Z" fill="#E48DC2"/>
</svg>
