<svg width="160" height="160" viewBox="0 0 160 160" fill="none" xmlns="http://www.w3.org/2000/svg">
<path fill-rule="evenodd" clip-rule="evenodd" d="M130 140C135.523 140 140 135.523 140 130V30C140 24.4771 135.523 20 130 20H30C24.47 20 20 24.4733 20 29.989V130.035C20 135.535 24.4542 140 30 140H130ZM150 30V130C150 141.046 141.046 150 130 150H30C18.9543 150 10 141.081 10 130.035V29.989C10 18.9433 18.9543 10 30 10H130C141.046 10 150 18.9543 150 30ZM85 60C87.7613 60 90 62.2386 90 65V110C90 121.046 81.046 130 70 130C58.9543 130 50 121.046 50 110V105C50 102.239 52.2386 100 55 100C57.7614 100 60 102.239 60 105V110C60 115.523 64.4771 120 70 120C75.5227 120 80 115.523 80 110V65C80 62.2386 82.2387 60 85 60ZM120 60C108.954 60 100 68.954 100 80V85C100 93.284 106.716 100 115 100C117.761 100 120 102.239 120 105V110C120 115.523 115.523 120 110 120H105C102.239 120 100 122.239 100 125C100 127.761 102.239 130 105 130H110C121.046 130 130 121.046 130 110V105C130 96.716 123.284 90 115 90C112.239 90 110 87.7613 110 85V80C110 74.4773 114.477 70 120 70H125C127.761 70 130 67.7613 130 65C130 62.2386 127.761 60 125 60H120Z" fill="#FCE94E"/>
</svg>
