<svg width="160" height="160" viewBox="0 0 160 160" fill="none" xmlns="http://www.w3.org/2000/svg">
<path fill-rule="evenodd" clip-rule="evenodd" d="M110 10C121.046 10 130 18.9543 130 30V110V130C130 141.046 121.046 150 110 150H50C38.9543 150 30 141.046 30 130V110V30C30 18.9543 38.9543 10 50 10H110ZM40 120C45.5229 120 50 115.523 50 110C50 104.477 45.5229 100 40 100V30C40 24.4771 44.4771 20 50 20H110C115.523 20 120 24.4771 120 30V100C114.477 100 110 104.477 110 110C110 115.523 114.477 120 120 120V130C120 135.523 115.523 140 110 140H50C44.4771 140 40 135.523 40 130V120ZM70 110C70 115.523 74.4773 120 80 120C85.5227 120 90 115.523 90 110C90 104.477 85.5227 100 80 100C74.4773 100 70 104.477 70 110ZM80 90C68.954 90 60 98.954 60 110C60 121.046 68.954 130 80 130C91.046 130 100 121.046 100 110C100 98.954 91.046 90 80 90ZM55 30C52.2386 30 50 32.2386 50 35C50 37.7614 52.2386 40 55 40H105C107.761 40 110 37.7614 110 35C110 32.2386 107.761 30 105 30H55Z" fill="#C3D2DF"/>
</svg>
