<svg width="16" height="16" viewBox="0 0 16 16" fill="none" xmlns="http://www.w3.org/2000/svg">
<path fill-rule="evenodd" clip-rule="evenodd" d="M8 8.99997L11.5 12.5C11.7761 12.7761 12.2239 12.7761 12.5 12.5C12.7761 12.2238 12.7761 11.7761 12.5 11.5L9 7.99997L12.5 4.49997C12.7761 4.22383 12.7761 3.77611 12.5 3.49997C12.2239 3.22383 11.7761 3.22383 11.5 3.49997L8.00002 6.99997L4.5 3.49997C4.22386 3.22383 3.77614 3.22383 3.5 3.49997C3.22386 3.77611 3.22386 4.22383 3.5 4.49997L7 7.99997L3.5 11.5C3.22386 11.7761 3.22386 12.2238 3.5 12.5C3.77614 12.7761 4.22386 12.7761 4.5 12.5L8 8.99997Z" fill="#C3D2DF"/>
</svg>
