<svg width="80" height="20" viewBox="0 0 80 20" fill="none" xmlns="http://www.w3.org/2000/svg">
<rect width="80" height="20" rx="8" fill="black" fill-opacity="0.5"/>
<rect x="0.5" y="0.5" width="79" height="19" rx="7.5" stroke="white" stroke-opacity="0.05"/>
<path d="M12.5293 14.2051C11.748 14.2051 11.0703 14.0254 10.4961 13.666C9.92578 13.3066 9.48633 12.7969 9.17773 12.1367C8.86914 11.4766 8.71484 10.6914 8.71484 9.78125V9.76953C8.71484 8.85547 8.86914 8.06836 9.17773 7.4082C9.48633 6.74805 9.92578 6.23828 10.4961 5.87891C11.0664 5.51953 11.7441 5.33984 12.5293 5.33984C13.1504 5.33984 13.7109 5.46289 14.2109 5.70898C14.7148 5.95117 15.127 6.28711 15.4473 6.7168C15.7715 7.14648 15.9688 7.64062 16.0391 8.19922V8.23438H14.7324L14.7266 8.21094C14.6484 7.86328 14.5059 7.5625 14.2988 7.30859C14.0918 7.05469 13.8379 6.85742 13.5371 6.7168C13.2363 6.57617 12.9004 6.50586 12.5293 6.50586C12.0254 6.50586 11.5879 6.63867 11.2168 6.9043C10.8496 7.16992 10.5645 7.54688 10.3613 8.03516C10.1621 8.51953 10.0625 9.09766 10.0625 9.76953V9.78125C10.0625 10.4453 10.1621 11.0215 10.3613 11.5098C10.5645 11.998 10.8496 12.375 11.2168 12.6406C11.5879 12.9062 12.0273 13.0391 12.5352 13.0391C12.9062 13.0391 13.2422 12.9766 13.543 12.8516C13.8477 12.7266 14.1016 12.5488 14.3047 12.3184C14.5078 12.084 14.6465 11.8086 14.7207 11.4922L14.7324 11.4688H16.0449L16.0391 11.498C15.957 12.041 15.7578 12.5156 15.4414 12.9219C15.125 13.3281 14.7188 13.6445 14.2227 13.8711C13.7266 14.0938 13.1621 14.2051 12.5293 14.2051ZM20.3164 14.123C19.6953 14.123 19.1582 13.9902 18.7051 13.7246C18.2559 13.459 17.9102 13.0801 17.668 12.5879C17.4258 12.0918 17.3047 11.5039 17.3047 10.8242V10.8125C17.3047 10.1289 17.4258 9.54102 17.668 9.04883C17.9141 8.55664 18.2617 8.17773 18.7109 7.91211C19.1641 7.64648 19.6992 7.51367 20.3164 7.51367C20.9375 7.51367 21.4727 7.64648 21.9219 7.91211C22.3711 8.17383 22.7168 8.55273 22.959 9.04883C23.2051 9.54102 23.3281 10.1289 23.3281 10.8125V10.8242C23.3281 11.5039 23.2051 12.0918 22.959 12.5879C22.7168 13.0801 22.3711 13.459 21.9219 13.7246C21.4766 13.9902 20.9414 14.123 20.3164 14.123ZM20.3164 13.0566C20.6797 13.0566 20.9883 12.9688 21.2422 12.793C21.4961 12.6133 21.6895 12.3574 21.8223 12.0254C21.9551 11.6934 22.0215 11.293 22.0215 10.8242V10.8125C22.0215 10.3398 21.9551 9.9375 21.8223 9.60547C21.6895 9.27344 21.4961 9.01953 21.2422 8.84375C20.9883 8.66406 20.6797 8.57422 20.3164 8.57422C19.9531 8.57422 19.6445 8.66406 19.3906 8.84375C19.1367 9.01953 18.9414 9.27344 18.8047 9.60547C18.6719 9.9375 18.6055 10.3398 18.6055 10.8125V10.8242C18.6055 11.293 18.6719 11.6934 18.8047 12.0254C18.9414 12.3574 19.1367 12.6133 19.3906 12.793C19.6445 12.9688 19.9531 13.0566 20.3164 13.0566ZM24.8398 14V7.63672H26.1113V8.61523H26.2109C26.3516 8.26367 26.5703 7.99219 26.8672 7.80078C27.168 7.60938 27.5273 7.51367 27.9453 7.51367C28.2344 7.51367 28.4941 7.56055 28.7246 7.6543C28.9551 7.74805 29.1523 7.88086 29.3164 8.05273C29.4844 8.2207 29.6152 8.41992 29.709 8.65039H29.8086C29.9141 8.41992 30.0625 8.2207 30.2539 8.05273C30.4453 7.88086 30.668 7.74805 30.9219 7.6543C31.1797 7.56055 31.4531 7.51367 31.7422 7.51367C32.1719 7.51367 32.5391 7.59766 32.8438 7.76562C33.1484 7.92969 33.3809 8.16797 33.541 8.48047C33.7012 8.79297 33.7812 9.16992 33.7812 9.61133V14H32.5098V9.91602C32.5098 9.62305 32.4648 9.38086 32.375 9.18945C32.2852 8.99414 32.1484 8.84766 31.9648 8.75C31.7852 8.65234 31.5586 8.60352 31.2852 8.60352C31.0156 8.60352 30.7793 8.66602 30.5762 8.79102C30.377 8.91211 30.2207 9.07617 30.1074 9.2832C29.998 9.48633 29.9434 9.7168 29.9434 9.97461V14H28.6719V9.78711C28.6719 9.54492 28.6211 9.33594 28.5195 9.16016C28.4219 8.98047 28.2812 8.84375 28.0977 8.75C27.9141 8.65234 27.6973 8.60352 27.4473 8.60352C27.1934 8.60352 26.9648 8.66992 26.7617 8.80273C26.5625 8.93555 26.4043 9.11523 26.2871 9.3418C26.1699 9.56445 26.1113 9.81445 26.1113 10.0918V14H24.8398ZM35.5625 16.1211V7.63672H36.834V8.63867H36.9336C37.0547 8.4043 37.2109 8.20508 37.4023 8.04102C37.5977 7.87695 37.8203 7.75 38.0703 7.66016C38.3203 7.57031 38.5938 7.52539 38.8906 7.52539C39.4258 7.52539 39.8906 7.66211 40.2852 7.93555C40.6797 8.20508 40.9844 8.58594 41.1992 9.07812C41.418 9.56641 41.5273 10.1445 41.5273 10.8125V10.8242C41.5273 11.4961 41.4199 12.0781 41.2051 12.5703C40.9902 13.0586 40.6855 13.4375 40.291 13.707C39.8965 13.9727 39.4297 14.1055 38.8906 14.1055C38.5977 14.1055 38.3242 14.0605 38.0703 13.9707C37.8164 13.877 37.5918 13.748 37.3965 13.584C37.2012 13.4199 37.0469 13.2227 36.9336 12.9922H36.834V16.1211H35.5625ZM38.5273 13.0156C38.8828 13.0156 39.1875 12.9277 39.4414 12.752C39.6953 12.5762 39.8887 12.3242 40.0215 11.9961C40.1582 11.668 40.2266 11.2773 40.2266 10.8242V10.8125C40.2266 10.3555 40.1582 9.96289 40.0215 9.63477C39.8887 9.30664 39.6953 9.05469 39.4414 8.87891C39.1875 8.70312 38.8828 8.61523 38.5273 8.61523C38.1758 8.61523 37.8711 8.70508 37.6133 8.88477C37.3555 9.06055 37.1582 9.3125 37.0215 9.64062C36.8848 9.96484 36.8164 10.3555 36.8164 10.8125V10.8242C36.8164 11.2734 36.8848 11.6621 37.0215 11.9902C37.1582 12.3184 37.3555 12.5723 37.6133 12.752C37.8711 12.9277 38.1758 13.0156 38.5273 13.0156ZM43.1094 14V5.14062H44.3809V14H43.1094ZM48.9453 14.123C48.3242 14.123 47.791 13.9902 47.3457 13.7246C46.9004 13.4551 46.5566 13.0742 46.3145 12.582C46.0762 12.0898 45.957 11.5078 45.957 10.8359V10.8301C45.957 10.166 46.0762 9.58594 46.3145 9.08984C46.5566 8.59375 46.8965 8.20703 47.334 7.92969C47.7754 7.65234 48.291 7.51367 48.8809 7.51367C49.4746 7.51367 49.9844 7.64648 50.4102 7.91211C50.8398 8.17773 51.1699 8.55078 51.4004 9.03125C51.6309 9.50781 51.7461 10.0664 51.7461 10.707V11.1523H46.6016V10.2441H51.1133L50.5039 11.0879V10.5781C50.5039 10.125 50.4336 9.75 50.293 9.45312C50.1562 9.15234 49.9668 8.92773 49.7246 8.7793C49.4824 8.63086 49.2031 8.55664 48.8867 8.55664C48.5703 8.55664 48.2871 8.63477 48.0371 8.79102C47.791 8.94336 47.5957 9.16992 47.4512 9.4707C47.3105 9.77148 47.2402 10.1406 47.2402 10.5781V11.0879C47.2402 11.5059 47.3105 11.8633 47.4512 12.1602C47.5918 12.457 47.791 12.6836 48.0488 12.8398C48.3105 12.9961 48.6191 13.0742 48.9746 13.0742C49.248 13.0742 49.4824 13.0371 49.6777 12.9629C49.877 12.8848 50.0391 12.7891 50.1641 12.6758C50.293 12.5625 50.3809 12.4512 50.4277 12.3418L50.4512 12.2949H51.6816L51.6699 12.3477C51.6152 12.5586 51.5195 12.7695 51.3828 12.9805C51.2461 13.1875 51.0645 13.377 50.8379 13.5488C50.6152 13.7207 50.3457 13.8594 50.0293 13.9648C49.7168 14.0703 49.3555 14.123 48.9453 14.123ZM55.6602 14.041C54.9648 14.041 54.4609 13.9082 54.1484 13.6426C53.8398 13.373 53.6855 12.9336 53.6855 12.3242V8.63867H52.6895V7.63672H53.6855V6.03125H54.9863V7.63672H56.3516V8.63867H54.9863V12.0137C54.9863 12.3574 55.0547 12.6055 55.1914 12.7578C55.3281 12.9062 55.5547 12.9805 55.8711 12.9805C55.9648 12.9805 56.0449 12.9785 56.1113 12.9746C56.1816 12.9707 56.2617 12.9648 56.3516 12.957V13.9766C56.25 13.9922 56.1406 14.0059 56.0234 14.0176C55.9062 14.0332 55.7852 14.041 55.6602 14.041ZM60.4414 14.123C59.8203 14.123 59.2871 13.9902 58.8418 13.7246C58.3965 13.4551 58.0527 13.0742 57.8105 12.582C57.5723 12.0898 57.4531 11.5078 57.4531 10.8359V10.8301C57.4531 10.166 57.5723 9.58594 57.8105 9.08984C58.0527 8.59375 58.3926 8.20703 58.8301 7.92969C59.2715 7.65234 59.7871 7.51367 60.377 7.51367C60.9707 7.51367 61.4805 7.64648 61.9062 7.91211C62.3359 8.17773 62.666 8.55078 62.8965 9.03125C63.127 9.50781 63.2422 10.0664 63.2422 10.707V11.1523H58.0977V10.2441H62.6094L62 11.0879V10.5781C62 10.125 61.9297 9.75 61.7891 9.45312C61.6523 9.15234 61.4629 8.92773 61.2207 8.7793C60.9785 8.63086 60.6992 8.55664 60.3828 8.55664C60.0664 8.55664 59.7832 8.63477 59.5332 8.79102C59.2871 8.94336 59.0918 9.16992 58.9473 9.4707C58.8066 9.77148 58.7363 10.1406 58.7363 10.5781V11.0879C58.7363 11.5059 58.8066 11.8633 58.9473 12.1602C59.0879 12.457 59.2871 12.6836 59.5449 12.8398C59.8066 12.9961 60.1152 13.0742 60.4707 13.0742C60.7441 13.0742 60.9785 13.0371 61.1738 12.9629C61.373 12.8848 61.5352 12.7891 61.6602 12.6758C61.7891 12.5625 61.877 12.4512 61.9238 12.3418L61.9473 12.2949H63.1777L63.166 12.3477C63.1113 12.5586 63.0156 12.7695 62.8789 12.9805C62.7422 13.1875 62.5605 13.377 62.334 13.5488C62.1113 13.7207 61.8418 13.8594 61.5254 13.9648C61.2129 14.0703 60.8516 14.123 60.4414 14.123ZM67.0742 14.1055C66.543 14.1055 66.0781 13.9727 65.6797 13.707C65.2852 13.4375 64.9785 13.0566 64.7598 12.5645C64.5449 12.0723 64.4375 11.4922 64.4375 10.8242V10.8125C64.4375 10.1406 64.5449 9.55859 64.7598 9.06641C64.9746 8.57422 65.2793 8.19531 65.6738 7.92969C66.0684 7.66016 66.5352 7.52539 67.0742 7.52539C67.3672 7.52539 67.6406 7.57227 67.8945 7.66602C68.1484 7.75586 68.373 7.88477 68.5684 8.05273C68.7637 8.2168 68.918 8.41406 69.0312 8.64453H69.125V5.14062H70.4023V14H69.125V12.998H69.0312C68.9062 13.2285 68.748 13.4277 68.5566 13.5957C68.3652 13.7598 68.1445 13.8867 67.8945 13.9766C67.6445 14.0625 67.3711 14.1055 67.0742 14.1055ZM67.4375 13.0156C67.7891 13.0156 68.0938 12.9277 68.3516 12.752C68.6094 12.5762 68.8066 12.3242 68.9434 11.9961C69.0801 11.6641 69.1484 11.2734 69.1484 10.8242V10.8125C69.1484 10.3594 69.0781 9.96875 68.9375 9.64062C68.8008 9.3125 68.6035 9.06055 68.3457 8.88477C68.0918 8.70508 67.7891 8.61523 67.4375 8.61523C67.0859 8.61523 66.7812 8.70508 66.5234 8.88477C66.2695 9.06055 66.0742 9.3125 65.9375 9.64062C65.8047 9.96484 65.7383 10.3555 65.7383 10.8125V10.8242C65.7383 11.2773 65.8047 11.668 65.9375 11.9961C66.0742 12.3242 66.2695 12.5762 66.5234 12.752C66.7812 12.9277 67.0859 13.0156 67.4375 13.0156Z" fill="#64C636"/>
</svg>
