<svg width="24" height="24" viewBox="0 0 24 24" fill="none" xmlns="http://www.w3.org/2000/svg">
<path fill-rule="evenodd" clip-rule="evenodd" d="M12 15C15.3137 15 18 12.3137 18 9C18 5.68629 15.3137 3 12 3C8.68629 3 6 5.68629 6 9C6 12.3137 8.68629 15 12 15ZM19.5 9C19.5 11.4537 18.3217 13.6322 16.5 15.0005V18C16.5 20.4853 14.4853 22.5 12 22.5C9.51472 22.5 7.5 20.4853 7.5 18V15.0005C5.67833 13.6322 4.5 11.4537 4.5 9C4.5 4.85786 7.85786 1.5 12 1.5C16.1421 1.5 19.5 4.85786 19.5 9ZM12 16.5C13.0089 16.5 13.9713 16.3008 14.8499 15.9396C14.4556 17.1362 13.3287 18 12 18C10.6713 18 9.54436 17.1362 9.15007 15.9396C10.0287 16.3008 10.9911 16.5 12 16.5ZM12 21C13.5299 21 14.7924 19.8547 14.9768 18.3748C14.1835 19.0751 13.1414 19.5 12 19.5C10.8586 19.5 9.81649 19.0751 9.02318 18.3748C9.20761 19.8547 10.4701 21 12 21ZM12 5.25C11.5858 5.25 11.25 5.58579 11.25 6C11.25 6.41421 11.5858 6.75 12 6.75C13.2426 6.75 14.25 7.75736 14.25 9C14.25 9.41421 14.5858 9.75 15 9.75C15.4142 9.75 15.75 9.41421 15.75 9C15.75 6.92893 14.0711 5.25 12 5.25Z" fill="#FCE94E"/>
</svg>
