<svg width="54" height="20" viewBox="0 0 54 20" fill="none" xmlns="http://www.w3.org/2000/svg">
<rect width="54" height="20" rx="8" fill="#6987FF"/>
<rect x="0.5" y="0.5" width="53" height="19" rx="7.5" stroke="white" stroke-opacity="0.05"/>
<path d="M10.9766 14V6.89844H10.8828L8.75586 8.41602V7.12695L10.9824 5.54492H12.2949V14H10.9766ZM17.6738 14.2051C17.0215 14.2051 16.4629 14.0254 15.998 13.666C15.5332 13.3066 15.1758 12.7969 14.9258 12.1367C14.6758 11.4727 14.5508 10.6855 14.5508 9.77539V9.76367C14.5508 8.85352 14.6758 8.06836 14.9258 7.4082C15.1758 6.74805 15.5332 6.23828 15.998 5.87891C16.4629 5.51953 17.0215 5.33984 17.6738 5.33984C18.3262 5.33984 18.8848 5.51953 19.3496 5.87891C19.8145 6.23828 20.1719 6.74805 20.4219 7.4082C20.6758 8.06836 20.8027 8.85352 20.8027 9.76367V9.77539C20.8027 10.6855 20.6758 11.4727 20.4219 12.1367C20.1719 12.7969 19.8145 13.3066 19.3496 13.666C18.8848 14.0254 18.3262 14.2051 17.6738 14.2051ZM17.6738 13.1094C18.0527 13.1094 18.375 12.9746 18.6406 12.7051C18.9102 12.4355 19.1152 12.0527 19.2559 11.5566C19.4004 11.0566 19.4727 10.4629 19.4727 9.77539V9.76367C19.4727 9.07617 19.4004 8.48438 19.2559 7.98828C19.1152 7.49219 18.9102 7.11133 18.6406 6.8457C18.375 6.57617 18.0527 6.44141 17.6738 6.44141C17.2988 6.44141 16.9766 6.57617 16.707 6.8457C16.4414 7.11133 16.2363 7.49219 16.0918 7.98828C15.9512 8.48438 15.8809 9.07617 15.8809 9.76367V9.77539C15.8809 10.4629 15.9512 11.0566 16.0918 11.5566C16.2363 12.0527 16.4414 12.4355 16.707 12.7051C16.9766 12.9746 17.2988 13.1094 17.6738 13.1094ZM25.7656 14V7.63672H27.0371V8.61523H27.1367C27.2773 8.26367 27.4961 7.99219 27.793 7.80078C28.0938 7.60938 28.4531 7.51367 28.8711 7.51367C29.1602 7.51367 29.4199 7.56055 29.6504 7.6543C29.8809 7.74805 30.0781 7.88086 30.2422 8.05273C30.4102 8.2207 30.541 8.41992 30.6348 8.65039H30.7344C30.8398 8.41992 30.9883 8.2207 31.1797 8.05273C31.3711 7.88086 31.5938 7.74805 31.8477 7.6543C32.1055 7.56055 32.3789 7.51367 32.668 7.51367C33.0977 7.51367 33.4648 7.59766 33.7695 7.76562C34.0742 7.92969 34.3066 8.16797 34.4668 8.48047C34.627 8.79297 34.707 9.16992 34.707 9.61133V14H33.4355V9.91602C33.4355 9.62305 33.3906 9.38086 33.3008 9.18945C33.2109 8.99414 33.0742 8.84766 32.8906 8.75C32.7109 8.65234 32.4844 8.60352 32.2109 8.60352C31.9414 8.60352 31.7051 8.66602 31.502 8.79102C31.3027 8.91211 31.1465 9.07617 31.0332 9.2832C30.9238 9.48633 30.8691 9.7168 30.8691 9.97461V14H29.5977V9.78711C29.5977 9.54492 29.5469 9.33594 29.4453 9.16016C29.3477 8.98047 29.207 8.84375 29.0234 8.75C28.8398 8.65234 28.623 8.60352 28.373 8.60352C28.1191 8.60352 27.8906 8.66992 27.6875 8.80273C27.4883 8.93555 27.3301 9.11523 27.2129 9.3418C27.0957 9.56445 27.0371 9.81445 27.0371 10.0918V14H25.7656ZM36.5059 14V7.63672H37.7832V14H36.5059ZM37.1504 6.5C36.9316 6.5 36.7441 6.42188 36.5879 6.26562C36.4316 6.10938 36.3535 5.92188 36.3535 5.70312C36.3535 5.48438 36.4316 5.29883 36.5879 5.14648C36.7441 4.99023 36.9316 4.91211 37.1504 4.91211C37.3691 4.91211 37.5566 4.99023 37.7129 5.14648C37.8691 5.29883 37.9473 5.48438 37.9473 5.70312C37.9473 5.92188 37.8691 6.10938 37.7129 6.26562C37.5566 6.42188 37.3691 6.5 37.1504 6.5ZM39.6289 14V7.63672H40.9004V8.59766H41C41.1562 8.25781 41.3867 7.99219 41.6914 7.80078C41.9961 7.60938 42.3809 7.51367 42.8457 7.51367C43.5605 7.51367 44.1074 7.71875 44.4863 8.12891C44.8652 8.53906 45.0547 9.12305 45.0547 9.88086V14H43.7773V10.1797C43.7773 9.64844 43.666 9.25391 43.4434 8.99609C43.2246 8.73438 42.8809 8.60352 42.4121 8.60352C42.1035 8.60352 41.8359 8.67188 41.6094 8.80859C41.3828 8.94141 41.207 9.13281 41.082 9.38281C40.9609 9.62891 40.9004 9.92383 40.9004 10.2676V14H39.6289Z" fill="white"/>
</svg>
